<mxfile host="65bd71144e">
    <diagram id="nz8-MM2MCp1QpZ4u0frU" name="Page-1">
        <mxGraphModel dx="746" dy="328" grid="1" gridSize="10" guides="1" tooltips="1" connect="1" arrows="1" fold="1" page="1" pageScale="1" pageWidth="850" pageHeight="1100" math="0" shadow="0">
            <root>
                <mxCell id="0"/>
                <mxCell id="1" parent="0"/>
                <mxCell id="2" style="edgeStyle=none;html=1;exitX=0.5;exitY=0;exitDx=0;exitDy=0;exitPerimeter=0;entryX=0.5;entryY=1;entryDx=0;entryDy=0;fillColor=#f5f5f5;strokeColor=#FFFFFF;" edge="1" parent="1" source="3" target="7">
                    <mxGeometry relative="1" as="geometry"/>
                </mxCell>
                <mxCell id="3" value="Trabajador" style="shape=umlActor;verticalLabelPosition=bottom;verticalAlign=top;html=1;fillColor=none;fontColor=#FFFFFF;strokeColor=#FFFFFF;" vertex="1" parent="1">
                    <mxGeometry x="405" y="630" width="40" height="80" as="geometry"/>
                </mxCell>
                <mxCell id="4" style="edgeStyle=none;html=1;exitX=0.5;exitY=0;exitDx=0;exitDy=0;entryX=0.5;entryY=1;entryDx=0;entryDy=0;fillColor=#f5f5f5;strokeColor=#FFFFFF;" edge="1" parent="1" source="7" target="9">
                    <mxGeometry relative="1" as="geometry"/>
                </mxCell>
                <mxCell id="5" style="edgeStyle=none;html=1;exitX=0;exitY=0;exitDx=0;exitDy=0;entryX=0.5;entryY=1;entryDx=0;entryDy=0;fillColor=#f5f5f5;strokeColor=#FFFFFF;" edge="1" parent="1" source="7" target="8">
                    <mxGeometry relative="1" as="geometry"/>
                </mxCell>
                <mxCell id="6" style="edgeStyle=none;html=1;exitX=1;exitY=0;exitDx=0;exitDy=0;entryX=0.5;entryY=1;entryDx=0;entryDy=0;fillColor=#f5f5f5;strokeColor=#FFFFFF;" edge="1" parent="1" source="7" target="10">
                    <mxGeometry relative="1" as="geometry"/>
                </mxCell>
                <mxCell id="7" value="Autentificación" style="ellipse;whiteSpace=wrap;html=1;fillColor=#f5f5f5;fontColor=#333333;strokeColor=#FFFFFF;" vertex="1" parent="1">
                    <mxGeometry x="370" y="510" width="110" height="70" as="geometry"/>
                </mxCell>
                <mxCell id="8" value="Confirmación de asistencia" style="ellipse;whiteSpace=wrap;html=1;fillColor=#f5f5f5;fontColor=#333333;strokeColor=#FFFFFF;" vertex="1" parent="1">
                    <mxGeometry x="215" y="390" width="110" height="70" as="geometry"/>
                </mxCell>
                <mxCell id="9" value="Ver historial" style="ellipse;whiteSpace=wrap;html=1;fillColor=#f5f5f5;fontColor=#333333;strokeColor=#FFFFFF;" vertex="1" parent="1">
                    <mxGeometry x="370" y="390" width="110" height="70" as="geometry"/>
                </mxCell>
                <mxCell id="10" value="Generación de avisos" style="ellipse;whiteSpace=wrap;html=1;fillColor=#f5f5f5;fontColor=#333333;strokeColor=#FFFFFF;" vertex="1" parent="1">
                    <mxGeometry x="525" y="390" width="110" height="70" as="geometry"/>
                </mxCell>
            </root>
        </mxGraphModel>
    </diagram>
</mxfile>